<?xml version="1.0" encoding="utf-8"?>
<!-- Generator: Adobe Illustrator 23.1.0, SVG Export Plug-In . SVG Version: 6.00 Build 0)  -->
<svg version="1.1" id="Layer_1" xmlns="http://www.w3.org/2000/svg" xmlns:xlink="http://www.w3.org/1999/xlink" x="0px" y="0px"
	 viewBox="0 0 36 50" style="enable-background:new 0 0 36 50;" xml:space="preserve">
<style type="text/css">
	.st0{fill:#147350;}
	.st1{fill:#FFFFFF;}
	.st2{fill:#EF8200;}
	.st3{fill:#EC0F2A;}
	.st4{fill:#FF6C00;}
</style>
<g>
	<path class="st0" d="M18,0c9.68,0,18,6.17,18,19.21C36,31.98,22.38,50,18,50S0,31.98,0,19.21C0,6.17,8.32,0,18,0z"/>
	<g>
		<g>
			<path class="st1" d="M29.73,9.74c-0.02-0.31-0.12-0.54-0.28-0.68c-0.19-0.16-0.41-0.14-0.42-0.14H7.21
				C6.47,8.98,6.28,9.6,6.27,9.61l0,0.01l2,22.79c0.12,0.81,0.93,0.88,0.94,0.88h5.29l-0.03,0.94l7.02,0.03l0.03-1.06l5.26,0.03
				c1.12-0.29,1.06-1.24,1.06-1.25L29.73,9.74z"/>
			<path class="st1" d="M21.5,34.5C21.5,34.5,21.49,34.5,21.5,34.5l-7.02-0.03c-0.07,0-0.13-0.03-0.17-0.07
				c-0.05-0.05-0.07-0.11-0.07-0.18l0.02-0.69H9.22c-0.2,0-1.04-0.19-1.18-1.08c0-0.01,0-0.01,0-0.02l-2-22.79
				c0-0.03,0-0.05,0.01-0.08l0,0c0.04-0.18,0.35-0.81,1.15-0.87c0.01,0,0.01,0,0.02,0h21.8c0.01,0,0.03,0,0.05,0
				c0.09,0,0.33,0.02,0.54,0.2c0.22,0.18,0.34,0.47,0.37,0.85c0,0.01,0,0.02,0,0.04l-1.88,22.22c0,0.17-0.03,1.16-1.24,1.48
				c-0.02,0.01-0.04,0.01-0.06,0.01l-5.02-0.03l-0.02,0.83C21.73,34.4,21.63,34.5,21.5,34.5z M14.73,33.98l6.53,0.03l0.02-0.83
				c0-0.13,0.11-0.24,0.24-0.24c0,0,0,0,0,0l5.23,0.03c0.85-0.23,0.85-0.92,0.85-0.99c0,0,0-0.01,0-0.01c0-0.01,0-0.01,0-0.02
				l1.88-22.22c-0.02-0.23-0.08-0.4-0.2-0.49c-0.09-0.08-0.2-0.09-0.22-0.09c0,0,0,0-0.01,0c-0.01,0-0.02,0-0.03,0H7.22
				C6.75,9.2,6.57,9.53,6.52,9.64l2,22.73c0.09,0.57,0.64,0.66,0.71,0.67h5.28c0.07,0,0.13,0.03,0.17,0.07
				c0.05,0.05,0.07,0.11,0.07,0.18L14.73,33.98z"/>
		</g>
		<g>
			<path class="st2" d="M10.37,11.31l13.72,0c0,0-3.58,1.54-6.47,5.35l-7.24,0L10.37,11.31z"/>
			<path class="st1" d="M10.39,16.91c-0.13,0-0.24-0.11-0.24-0.24l-0.02-5.35c0-0.06,0.03-0.13,0.07-0.17
				c0.05-0.05,0.11-0.07,0.17-0.07l13.72,0c0.11,0,0.21,0.08,0.24,0.19c0.02,0.11-0.04,0.23-0.14,0.27
				c-0.04,0.02-3.56,1.56-6.37,5.27c-0.05,0.06-0.12,0.1-0.19,0.1L10.39,16.91L10.39,16.91z M10.62,11.56l0.01,4.87l6.88,0
				c1.49-1.94,3.16-3.28,4.3-4.06c0.49-0.34,0.93-0.6,1.28-0.8L10.62,11.56z"/>
		</g>
		<g>
			<path class="st3" d="M26.24,11.07v5.84c0,0-3.59,1.22-4.56,5.04h-5.65C16.02,21.95,17.79,14.17,26.24,11.07z"/>
			<path class="st1" d="M21.68,22.19h-5.65c-0.07,0-0.14-0.03-0.19-0.09c-0.05-0.06-0.06-0.13-0.05-0.2
				c0.02-0.08,0.47-2.01,1.97-4.35c0.88-1.37,1.95-2.6,3.16-3.65c1.52-1.31,3.28-2.33,5.23-3.05c0.07-0.03,0.16-0.02,0.22,0.03
				c0.07,0.05,0.1,0.12,0.1,0.2v5.84c0,0.1-0.07,0.2-0.16,0.23c-0.01,0-0.88,0.31-1.86,1.06c-1.3,1-2.15,2.29-2.54,3.81
				C21.89,22.12,21.79,22.19,21.68,22.19z M16.34,21.71h5.15c0.55-1.94,1.75-3.19,2.68-3.91c0.79-0.61,1.51-0.93,1.82-1.06v-5.32
				c-4.09,1.6-6.51,4.33-7.82,6.37C17.05,19.54,16.52,21.08,16.34,21.71z"/>
		</g>
		<g>
			<path class="st3" d="M15.3,27h5.89c0,0-0.43,5.41-0.12,6.81h-6.14C14.93,33.8,14.81,29.37,15.3,27z"/>
			<path class="st1" d="M21.07,34.04L21.07,34.04h-6.14c-0.13,0-0.24-0.1-0.24-0.24c-0.01-0.18-0.12-4.49,0.37-6.86
				c0.02-0.11,0.12-0.19,0.24-0.19h5.89c0.07,0,0.13,0.03,0.18,0.08c0.05,0.05,0.07,0.12,0.06,0.18c0,0.05-0.42,5.34-0.13,6.72
				c0.01,0.02,0.01,0.05,0.01,0.07C21.31,33.94,21.2,34.04,21.07,34.04z M15.17,33.56h5.62c-0.19-1.52,0.07-5.28,0.14-6.32H15.5
				C15.12,29.27,15.15,32.64,15.17,33.56z"/>
		</g>
		<polygon class="st0" points="9.57,22.42 11.8,22.41 11.8,23.27 10.8,23.27 10.8,24.08 11.74,24.08 11.74,24.88 10.8,24.88 
			10.8,25.7 11.77,25.7 11.77,26.61 9.58,26.61 		"/>
		<polygon class="st0" points="14.84,22.42 17.06,22.42 17.06,23.26 16.06,23.26 16.06,24.07 17,24.07 17,24.84 16.06,24.84 
			16.06,25.65 17.03,25.65 17.03,26.55 14.84,26.55 		"/>
		<polygon class="st0" points="20.68,22.41 22.89,22.41 22.89,23.27 21.89,23.27 21.89,24.08 22.83,24.08 22.83,24.88 21.89,24.88 
			21.89,25.7 22.86,25.7 22.86,26.61 20.68,26.61 		"/>
		<polygon class="st0" points="12.4,22.45 13.56,22.45 13.56,25.7 14.38,25.7 14.38,26.58 12.41,26.58 		"/>
		<polygon class="st0" points="17.36,22.42 18.39,22.42 18.86,25.52 19.43,22.42 20.31,22.42 19.61,26.58 17.88,26.58 		"/>
		<path class="st0" d="M23.38,22.45h1.19v0.24c0,0,0.64-0.33,1.06-0.36c0,0,0.52-0.06,0.85,0.67v3.59h-1.16v-3.13
			c0,0-0.37-0.51-0.76,0.03v3.07h-1.19V22.45z"/>
		<path class="st0" d="M22.32,27.17c-0.39,0-0.71,0.31-0.71,0.69c0,0.18,0.07,0.36,0.21,0.48c0.13,0.13,0.31,0.2,0.5,0.2
			c0.19,0,0.37-0.07,0.5-0.2c0.13-0.13,0.21-0.3,0.21-0.48c0-0.18-0.07-0.35-0.21-0.48C22.69,27.24,22.51,27.17,22.32,27.17
			 M22.94,27.85c0,0.33-0.28,0.59-0.62,0.59c-0.16,0-0.32-0.06-0.44-0.17c-0.12-0.11-0.18-0.26-0.18-0.42
			c0-0.16,0.06-0.31,0.18-0.42c0.11-0.11,0.27-0.18,0.44-0.18c0.17,0,0.32,0.06,0.44,0.18C22.88,27.55,22.94,27.7,22.94,27.85z"/>
		<path class="st0" d="M22.68,28.25l-0.21-0.38c0.04-0.02,0.08-0.06,0.11-0.09c0.03-0.04,0.05-0.09,0.05-0.15
			c0-0.04-0.01-0.08-0.03-0.11c-0.02-0.04-0.05-0.07-0.08-0.09c-0.03-0.02-0.06-0.03-0.09-0.03c-0.04-0.01-0.1-0.01-0.18-0.01h-0.24
			v0.1l0.01,0.39v0.39l0,0c0,0.03,0.02,0.05,0.05,0.05c0.03,0,0.05-0.02,0.05-0.05v-0.39h0.01h0.24l0.22,0.42l0,0
			c0.02,0.02,0.04,0.03,0.07,0.02C22.68,28.3,22.69,28.27,22.68,28.25 M22.12,27.78v-0.3h0.17c0.07,0,0.12,0.01,0.15,0.04
			c0.04,0.02,0.05,0.06,0.05,0.11c0,0.05-0.02,0.08-0.05,0.11c-0.03,0.03-0.09,0.04-0.16,0.04H22.12z"/>
		<path class="st1" d="M29.73,9.74c-0.02-0.31-0.12-0.54-0.28-0.68c-0.19-0.16-0.41-0.14-0.42-0.14H7.21
			C6.47,8.98,6.28,9.6,6.27,9.61l0,0.01l2,22.79c0.12,0.81,0.93,0.88,0.94,0.88h5.29l-0.03,0.94l7.02,0.03l0.03-1.06l5.26,0.03
			c1.12-0.29,1.06-1.24,1.06-1.25L29.73,9.74z"/>
		<path class="st4" d="M10.37,11.31l13.72,0c0,0-3.58,1.54-6.47,5.35l-7.24,0L10.37,11.31z"/>
		<path class="st3" d="M26.24,11.07v5.84c0,0-3.59,1.22-4.56,5.04h-5.65C16.02,21.95,17.79,14.17,26.24,11.07z"/>
		<path class="st3" d="M15.3,27h5.89c0,0-0.1,4.23-0.12,6.81h-6.14C14.93,33.8,14.92,29.31,15.3,27z"/>
		<polygon class="st0" points="9.57,22.42 11.8,22.41 11.8,23.27 10.8,23.27 10.8,24.08 11.74,24.08 11.74,24.88 10.8,24.88 
			10.8,25.7 11.77,25.7 11.77,26.61 9.58,26.61 		"/>
		<polygon class="st0" points="14.84,22.42 17.06,22.42 17.06,23.26 16.06,23.26 16.06,24.07 17,24.07 17,24.84 16.06,24.84 
			16.06,25.65 17.03,25.65 17.03,26.55 14.84,26.55 		"/>
		<polygon class="st0" points="20.68,22.41 22.89,22.41 22.89,23.27 21.89,23.27 21.89,24.08 22.83,24.08 22.83,24.88 21.89,24.88 
			21.89,25.7 22.86,25.7 22.86,26.61 20.68,26.61 		"/>
		<polygon class="st0" points="12.4,22.45 13.56,22.45 13.56,25.7 14.38,25.7 14.38,26.58 12.41,26.58 		"/>
		<polygon class="st0" points="17.36,22.42 18.39,22.42 18.86,25.52 19.43,22.42 20.31,22.42 19.61,26.58 17.88,26.58 		"/>
		<path class="st0" d="M23.38,22.45h1.19v0.24c0,0,0.64-0.33,1.06-0.36c0,0,0.52-0.06,0.85,0.67v3.59h-1.16v-3.13
			c0,0-0.37-0.51-0.76,0.03v3.07h-1.19V22.45z"/>
		<path class="st0" d="M22.2,27.17c-0.32,0-0.59,0.26-0.59,0.57c0,0.15,0.06,0.3,0.17,0.4c0.11,0.11,0.26,0.17,0.42,0.17
			c0.16,0,0.31-0.06,0.42-0.17c0.11-0.11,0.17-0.25,0.17-0.4c0-0.15-0.06-0.29-0.17-0.4C22.51,27.23,22.36,27.17,22.2,27.17
			 M22.72,27.74c0,0.27-0.23,0.49-0.51,0.49c-0.13,0-0.27-0.05-0.36-0.14c-0.1-0.09-0.15-0.22-0.15-0.35c0-0.13,0.05-0.25,0.15-0.35
			c0.1-0.09,0.23-0.15,0.36-0.15c0.14,0,0.27,0.05,0.36,0.15C22.66,27.48,22.72,27.61,22.72,27.74z"/>
		<path class="st0" d="M22.5,28.06l-0.17-0.31c0.04-0.02,0.07-0.05,0.09-0.07c0.03-0.04,0.04-0.07,0.04-0.12
			c0-0.03-0.01-0.07-0.02-0.1c-0.01-0.03-0.04-0.06-0.07-0.07c-0.02-0.01-0.05-0.02-0.08-0.03c-0.03-0.01-0.08-0.01-0.15-0.01h-0.2
			v0.08l0.01,0.33v0.33l0,0c0,0.02,0.02,0.04,0.04,0.04c0.02,0,0.04-0.02,0.04-0.04v-0.33h0h0.2l0.18,0.35l0,0
			c0.01,0.02,0.04,0.03,0.05,0.02C22.5,28.11,22.51,28.09,22.5,28.06 M22.04,27.68v-0.25h0.14c0.06,0,0.1,0.01,0.13,0.03
			c0.03,0.02,0.04,0.05,0.04,0.1c0,0.04-0.01,0.07-0.04,0.09c-0.03,0.02-0.07,0.03-0.13,0.03H22.04z"/>
	</g>
</g>
</svg>
