<?xml version="1.0" encoding="utf-8"?>
<!-- Generator: Adobe Illustrator 16.0.0, SVG Export Plug-In . SVG Version: 6.00 Build 0)  -->
<!DOCTYPE svg PUBLIC "-//W3C//DTD SVG 1.1//EN" "http://www.w3.org/Graphics/SVG/1.1/DTD/svg11.dtd">
<svg version="1.1" id="레이어_1" xmlns="http://www.w3.org/2000/svg" xmlns:xlink="http://www.w3.org/1999/xlink" x="0px"
	 y="0px" width="726.4px" height="374.003px" viewBox="0 0 726.4 374.003" style="enable-background:new 0 0 726.4 374.003;"
	 xml:space="preserve">
<style type="text/css">
<![CDATA[
	.st0{fill:#161616;}
	.st1{fill:#19704E;}
	.st2{fill:#89602B;}
	.st3{fill:#ED6B1B;}
	.st4{fill:#BBDBF0;}
	.st5{fill:#FFFFFF;}
	.st6{fill:#DD1F2C;}
	.st7{clip-path:url(#SVGID_2_);fill:#D8EBF6;}
]]>
</style>
<rect x="28.291" y="53.253" class="st4" width="654.162" height="314.112"/>
<g>
	<defs>
		<rect id="SVGID_1_" x="28.291" y="53.253" width="654.162" height="314.112"/>
	</defs>
	<clipPath id="SVGID_2_">
		<use xlink:href="#SVGID_1_"  style="overflow:visible;"/>
	</clipPath>
	<polygon class="st7" points="238.753,27.882 -96.24,384.735 -61.97,401.117 -37.064,416.042 284.351,57.421 270.739,47.05 	"/>
	<polygon class="st7" points="322.813,78.257 6.329,442.048 22.09,451.494 22.09,451.494 333.968,86.902 333.968,86.902 	"/>
	<polygon class="st7" points="695.89,41.577 360.896,398.431 395.167,414.812 420.071,429.737 741.486,71.115 727.875,60.744 	"/>
	<polygon class="st7" points="779.948,91.951 463.465,455.742 479.227,465.188 479.227,465.188 791.104,100.597 791.104,100.597 	
		"/>
</g>
<path class="st0" d="M726.4,4.4c0,2.431-1.971,4.4-4.401,4.4H4.4C1.97,8.801,0,6.831,0,4.4l0,0C0,1.97,1.97,0,4.4,0h717.599
	C724.43,0,726.4,1.97,726.4,4.4L726.4,4.4z"/>
<path class="st0" d="M714.801,369.491c0,2.493-1.907,4.512-4.26,4.512H15.861c-2.354,0-4.261-2.019-4.261-4.512l0,0
	c0-2.49,1.907-4.512,4.261-4.512h694.68C712.894,364.979,714.801,367.001,714.801,369.491L714.801,369.491z"/>
<path class="st0" d="M719.548,43.191c0,22.108-1.932,40.008-4.316,40.008H11.17c-2.385,0-4.318-17.899-4.318-40.008l0,0
	C6.852,21.1,8.785,3.2,11.17,3.2h704.062C717.616,3.2,719.548,21.1,719.548,43.191L719.548,43.191z"/>
<path class="st0" d="M431.034,357.881c0,5.236-1.652,9.484-3.688,9.484H309.922c-2.037,0-3.688-4.248-3.688-9.484l0,0
	c0-5.238,1.651-9.481,3.688-9.481h117.424C429.382,348.399,431.034,352.643,431.034,357.881L431.034,357.881z"/>
<path class="st0" d="M362.635,363.583c0,7.962-2.457,6.473-5.484,6.473l0,0c-3.028,0-5.483,1.489-5.483-6.473V151.014
	c0-7.96,2.455-14.414,5.483-14.414l0,0c3.027,0,5.484,6.454,5.484,14.414V363.583z"/>
<path class="st0" d="M373.601,363.583c0,7.962-2.455,6.473-5.483,6.473l0,0c-3.029,0-5.482,1.489-5.482-6.473V151.014
	c0-7.96,2.453-14.414,5.482-14.414l0,0c3.028,0,5.483,6.454,5.483,14.414V363.583z"/>
<path class="st2" d="M360.234,299.14c0,3.306-1.02,3.887-2.278,3.887l0,0c-1.256,0-2.275-0.581-2.275-3.887v-88.262
	c0-3.305,1.02-4.785,2.275-4.785l0,0c1.259,0,2.278,1.48,2.278,4.785V299.14z"/>
<path class="st2" d="M369.588,299.14c0,3.306-1.02,3.887-2.277,3.887l0,0c-1.257,0-2.276-0.581-2.276-3.887v-88.262
	c0-3.305,1.02-4.785,2.276-4.785l0,0c1.258,0,2.277,1.48,2.277,4.785V299.14z"/>
<path class="st5" d="M309.667,273.499c0,3.336-3.7,6.042-8.263,6.042H38.329c-4.563,0-8.263-2.706-8.263-6.042l0,0
	c0-3.336,3.699-6.041,8.263-6.041h263.075C305.967,267.458,309.667,270.163,309.667,273.499L309.667,273.499z"/>
<path class="st5" d="M695.467,273.499c0,3.336-3.699,6.042-8.263,6.042H424.13c-4.563,0-8.263-2.706-8.263-6.042l0,0
	c0-3.336,3.699-6.041,8.263-6.041h263.074C691.768,267.458,695.467,270.163,695.467,273.499L695.467,273.499z"/>
<path class="st0" d="M50.467,363.001c0,10.823-7.924,8.799-17.7,8.799l0,0c-9.775,0-17.7,2.024-17.7-8.799V73.998
	c0-10.823,7.925-19.599,17.7-19.599l0,0c9.776,0,17.7,8.775,17.7,19.599V363.001z"/>
<path class="st0" d="M710.703,363.001c0,10.823-7.924,8.799-17.699,8.799l0,0c-9.776,0-17.7,2.024-17.7-8.799V73.998
	c0-10.823,7.924-19.599,17.7-19.599l0,0c9.775,0,17.699,8.775,17.699,19.599V363.001z"/>
<path class="st0" d="M173.467,363.001c0,10.823-1.478,8.799-3.3,8.799l0,0c-1.822,0-3.3,2.024-3.3-8.799V73.998
	c0-10.823,1.478-19.599,3.3-19.599l0,0c1.822,0,3.3,8.775,3.3,19.599V363.001z"/>
<path class="st0" d="M559.867,363.001c0,10.823-1.479,8.799-3.301,8.799l0,0c-1.822,0-3.3,2.024-3.3-8.799V73.998
	c0-10.823,1.478-19.599,3.3-19.599l0,0c1.822,0,3.301,8.775,3.301,19.599V363.001z"/>
<path class="st0" d="M318.667,363.001c0,10.823-6.178,8.799-13.8,8.799l0,0c-7.622,0-13.801,2.024-13.801-8.799V73.998
	c0-10.823,6.179-19.599,13.801-19.599l0,0c7.622,0,13.8,8.775,13.8,19.599V363.001z"/>
<path class="st0" d="M435.667,363.001c0,10.823-6.177,8.799-13.8,8.799l0,0c-7.622,0-13.801,2.024-13.801-8.799V73.998
	c0-10.823,6.179-19.599,13.801-19.599l0,0c7.623,0,13.8,8.775,13.8,19.599V363.001z"/>
<path class="st1" d="M265.434,44.209c0,4.995-2.05,9.044-6.058,9.044H28.291c-4.008,0-6.058-4.049-6.058-9.044l0,0
	c0-4.995,2.05-9.045,6.058-9.045h231.085C263.384,35.164,265.434,39.214,265.434,44.209L265.434,44.209z"/>
<path class="st0" d="M425.034,141.418c0,3.42-1.652,6.194-3.688,6.194H303.922c-2.037,0-3.688-2.774-3.688-6.194l0,0
	c0-3.422,1.651-6.193,3.688-6.193h117.424C423.382,135.225,425.034,137.996,425.034,141.418L425.034,141.418z"/>
<path class="st3" d="M264.233,26.34c0,2.496-0.85,4.522-4.857,4.522H28.291c-4.008,0-4.857-2.026-4.857-4.522l0,0
	c0-2.498,0.85-4.522,4.857-4.522h231.085C263.384,21.817,264.233,23.842,264.233,26.34L264.233,26.34z"/>
<path class="st6" d="M264.233,62.077c0,2.496-0.85,4.522-4.857,4.522H28.291c-4.008,0-4.857-2.026-4.857-4.522l0,0
	c0-2.498,0.85-4.521,4.857-4.521h231.085C263.384,57.556,264.233,59.579,264.233,62.077L264.233,62.077z"/>
<path class="st1" d="M704.167,44.209c0,4.995-2.05,9.044-6.058,9.044H467.023c-4.008,0-6.057-4.049-6.057-9.044l0,0
	c0-4.995,2.049-9.045,6.057-9.045h231.086C702.117,35.164,704.167,39.214,704.167,44.209L704.167,44.209z"/>
<path class="st3" d="M702.967,26.34c0,2.496-0.85,4.522-4.857,4.522H467.023c-4.008,0-4.857-2.026-4.857-4.522l0,0
	c0-2.498,0.85-4.522,4.857-4.522h231.086C702.117,21.817,702.967,23.842,702.967,26.34L702.967,26.34z"/>
<path class="st6" d="M702.967,62.077c0,2.496-0.85,4.522-4.857,4.522H467.023c-4.008,0-4.857-2.026-4.857-4.522l0,0
	c0-2.498,0.85-4.521,4.857-4.521h231.086C702.117,57.556,702.967,59.579,702.967,62.077L702.967,62.077z"/>
<g>
	<path class="st5" d="M293.021,33.788h-10.34v-8.421h18.537h0.143c0,0-5.141,3.425-8.189,8.421H293.021z"/>
	<path class="st5" d="M304.314,24.694v9.443c0,0-5.482,2.381-6.191,9.15c0,0-1.146,8.198-0.861,18.82h-8.199
		c0,0-0.284-14.19,2.187-22.269C291.259,39.851,293.645,30.466,304.314,24.694z"/>
	<rect x="305.119" y="40.122" class="st5" width="9.904" height="6.655"/>
	<polygon class="st5" points="320.344,25.236 320.344,61.966 336.601,61.966 336.601,54.69 329.509,54.69 329.509,46.139 
		336.618,46.139 336.618,40.122 329.509,40.122 329.509,31.89 336.618,31.89 336.618,25.236 	"/>
	<polygon class="st5" points="358.226,25.236 358.226,61.966 374.491,61.966 374.491,54.69 367.39,54.69 367.39,46.139 
		374.501,46.139 374.501,40.122 367.39,40.122 367.39,31.89 374.501,31.89 374.501,25.236 	"/>
	<polygon class="st5" points="402.063,25.236 402.063,61.966 418.317,61.966 418.317,54.69 411.217,54.69 411.217,46.139 
		418.346,46.139 418.346,40.122 411.217,40.122 411.217,31.89 418.346,31.89 418.346,25.236 	"/>
	<polygon class="st5" points="340.17,25.236 340.17,61.966 355.915,61.966 355.915,54.69 349.07,54.69 349.07,25.236 	"/>
	<polygon class="st5" points="376.754,25.236 380.814,61.966 394.053,61.966 399.628,25.236 392.65,25.236 388.646,51.593 
		385.417,25.236 	"/>
	<path class="st5" d="M444.602,61.966V33.67c0,0,1.229-9.846-7.633-9.14c0,0-4.194,1.188-6.664,4.053v-3.347h-8.56v36.729h8.634
		v-23.67c0,0-0.083-4.499,2.388-4.861c2.479-0.357,3.059,1.178,2.962,3.318v25.213H444.602z"/>
</g>
</svg>
