<?xml version="1.0" encoding="utf-8"?>
<!-- Generator: Adobe Illustrator 16.0.0, SVG Export Plug-In . SVG Version: 6.00 Build 0)  -->
<!DOCTYPE svg PUBLIC "-//W3C//DTD SVG 1.1//EN" "http://www.w3.org/Graphics/SVG/1.1/DTD/svg11.dtd">
<svg version="1.1" id="레이어_1" xmlns="http://www.w3.org/2000/svg" xmlns:xlink="http://www.w3.org/1999/xlink" x="0px"
	 y="0px" width="595.28px" height="841.89px" viewBox="0 0 595.28 841.89" style="enable-background:new 0 0 595.28 841.89;"
	 xml:space="preserve">
<style type="text/css">
<![CDATA[
	.st0{fill:#464646;}
]]>
</style>
<g>
	<path class="st0" d="M-662.054-119.927V960.072h1920V-119.927H-662.054z M596.945,271.572h-3.804
		c1.054,5.81,1.761,16.465,1.761,28.659c0,18.424-1.609,33.34-3.597,33.34h-3.773v233.168c0,0.598-0.031,1.146-0.088,1.653
		c1.938,0.028,3.502,1.697,3.502,3.755c0,2.078-1.589,3.76-3.55,3.76H8.497c-1.961,0-3.551-1.682-3.551-3.76
		c0-1.869,1.294-3.41,2.983-3.699c-0.061-0.523-0.095-1.088-0.095-1.709V333.571H4.588c-1.987,0-3.599-14.916-3.599-33.34
		c0-12.194,0.707-22.85,1.762-28.659h-3.805c-2.025,0-3.667-1.642-3.667-3.667s1.642-3.667,3.667-3.667h597.999
		c2.025,0,3.668,1.642,3.668,3.667S598.971,271.572,596.945,271.572z"/>
</g>
</svg>
