<?xml version="1.0" encoding="utf-8"?>
<!-- Generator: Adobe Illustrator 16.0.0, SVG Export Plug-In . SVG Version: 6.00 Build 0)  -->
<!DOCTYPE svg PUBLIC "-//W3C//DTD SVG 1.1//EN" "http://www.w3.org/Graphics/SVG/1.1/DTD/svg11.dtd">
<svg version="1.1" id="레이어_1" xmlns="http://www.w3.org/2000/svg" xmlns:xlink="http://www.w3.org/1999/xlink" x="0px"
	 y="0px" width="595.28px" height="841.89px" viewBox="0 0 595.28 841.89" style="enable-background:new 0 0 595.28 841.89;"
	 xml:space="preserve">
<style type="text/css">
<![CDATA[
	.st0{fill:#161616;}
	.st1{fill:#19704E;}
	.st2{fill:#89602B;}
	.st3{fill:#ED6B1B;}
	.st4{fill:#BBDBF0;}
	.st5{fill:#FFFFFF;}
	.st6{fill:#DD1F2C;}
	.st7{clip-path:url(#SVGID_2_);fill:#D8EBF6;}
]]>
</style>
<rect x="-33.809" y="300.662" class="st4" width="654.162" height="314.112"/>
<g>
	<defs>
		<rect id="SVGID_1_" x="-33.809" y="300.662" width="654.162" height="314.112"/>
	</defs>
	<clipPath id="SVGID_2_">
		<use xlink:href="#SVGID_1_"  style="overflow:visible;"/>
	</clipPath>
	<polygon class="st7" points="176.653,275.291 -158.34,632.145 -124.069,648.526 -99.164,663.451 222.251,304.83 208.64,294.459 	
		"/>
	<polygon class="st7" points="260.713,325.666 -55.771,689.457 -40.01,698.903 -40.01,698.903 271.868,334.312 271.868,334.312 	"/>
	<polygon class="st7" points="633.79,288.986 298.796,645.84 333.067,662.221 357.972,677.146 679.387,318.524 665.775,308.153 	"/>
	<polygon class="st7" points="717.849,339.36 401.365,703.151 417.127,712.598 417.127,712.598 729.005,348.006 729.005,348.006 	
		"/>
</g>
<path class="st0" d="M664.301,251.81c0,2.431-1.971,4.4-4.401,4.4H-57.699c-2.431,0-4.4-1.97-4.4-4.4l0,0c0-2.431,1.97-4.4,4.4-4.4
	h717.599C662.33,247.409,664.301,249.379,664.301,251.81L664.301,251.81z"/>
<path class="st0" d="M652.701,616.9c0,2.493-1.907,4.512-4.26,4.512h-694.68c-2.354,0-4.261-2.019-4.261-4.512l0,0
	c0-2.49,1.907-4.512,4.261-4.512h694.68C650.794,612.389,652.701,614.41,652.701,616.9L652.701,616.9z"/>
<path class="st0" d="M657.448,290.601c0,22.108-1.932,40.008-4.316,40.008H-50.93c-2.385,0-4.318-17.899-4.318-40.008l0,0
	c0-22.092,1.934-39.991,4.318-39.991h704.062C655.517,250.609,657.448,268.509,657.448,290.601L657.448,290.601z"/>
<path class="st0" d="M368.935,605.29c0,5.236-1.652,9.484-3.688,9.484H247.822c-2.037,0-3.688-4.248-3.688-9.484l0,0
	c0-5.238,1.651-9.481,3.688-9.481h117.424C367.282,595.809,368.935,600.052,368.935,605.29L368.935,605.29z"/>
<path class="st0" d="M300.535,610.992c0,7.962-2.457,6.473-5.484,6.473l0,0c-3.028,0-5.483,1.489-5.483-6.473V398.423
	c0-7.96,2.455-14.414,5.483-14.414l0,0c3.027,0,5.484,6.454,5.484,14.414V610.992z"/>
<path class="st0" d="M311.501,610.992c0,7.962-2.455,6.473-5.483,6.473l0,0c-3.029,0-5.482,1.489-5.482-6.473V398.423
	c0-7.96,2.453-14.414,5.482-14.414l0,0c3.028,0,5.483,6.454,5.483,14.414V610.992z"/>
<path class="st2" d="M298.135,546.549c0,3.306-1.02,3.887-2.278,3.887l0,0c-1.256,0-2.275-0.581-2.275-3.887v-88.262
	c0-3.305,1.02-4.785,2.275-4.785l0,0c1.259,0,2.278,1.48,2.278,4.785V546.549z"/>
<path class="st2" d="M307.488,546.549c0,3.306-1.02,3.887-2.277,3.887l0,0c-1.257,0-2.276-0.581-2.276-3.887v-88.262
	c0-3.305,1.02-4.785,2.276-4.785l0,0c1.258,0,2.277,1.48,2.277,4.785V546.549z"/>
<path class="st5" d="M247.567,520.908c0,3.336-3.7,6.042-8.263,6.042H-23.771c-4.563,0-8.263-2.706-8.263-6.042l0,0
	c0-3.336,3.699-6.041,8.263-6.041h263.075C243.867,514.867,247.567,517.572,247.567,520.908L247.567,520.908z"/>
<path class="st5" d="M633.367,520.908c0,3.336-3.699,6.042-8.263,6.042H362.03c-4.563,0-8.263-2.706-8.263-6.042l0,0
	c0-3.336,3.699-6.041,8.263-6.041h263.074C629.668,514.867,633.367,517.572,633.367,520.908L633.367,520.908z"/>
<path class="st0" d="M-11.633,610.41c0,10.823-7.924,8.799-17.7,8.799l0,0c-9.775,0-17.7,2.024-17.7-8.799V321.407
	c0-10.823,7.925-19.599,17.7-19.599l0,0c9.776,0,17.7,8.775,17.7,19.599V610.41z"/>
<path class="st0" d="M648.604,610.41c0,10.823-7.924,8.799-17.699,8.799l0,0c-9.776,0-17.7,2.024-17.7-8.799V321.407
	c0-10.823,7.924-19.599,17.7-19.599l0,0c9.775,0,17.699,8.775,17.699,19.599V610.41z"/>
<path class="st0" d="M111.367,610.41c0,10.823-1.478,8.799-3.3,8.799l0,0c-1.822,0-3.3,2.024-3.3-8.799V321.407
	c0-10.823,1.478-19.599,3.3-19.599l0,0c1.822,0,3.3,8.775,3.3,19.599V610.41z"/>
<path class="st0" d="M497.768,610.41c0,10.823-1.479,8.799-3.301,8.799l0,0c-1.822,0-3.3,2.024-3.3-8.799V321.407
	c0-10.823,1.478-19.599,3.3-19.599l0,0c1.822,0,3.301,8.775,3.301,19.599V610.41z"/>
<path class="st0" d="M256.567,610.41c0,10.823-6.178,8.799-13.8,8.799l0,0c-7.622,0-13.801,2.024-13.801-8.799V321.407
	c0-10.823,6.179-19.599,13.801-19.599l0,0c7.622,0,13.8,8.775,13.8,19.599V610.41z"/>
<path class="st0" d="M373.567,610.41c0,10.823-6.177,8.799-13.8,8.799l0,0c-7.622,0-13.801,2.024-13.801-8.799V321.407
	c0-10.823,6.179-19.599,13.801-19.599l0,0c7.623,0,13.8,8.775,13.8,19.599V610.41z"/>
<path class="st1" d="M203.334,291.618c0,4.995-2.05,9.044-6.058,9.044H-33.809c-4.008,0-6.058-4.049-6.058-9.044l0,0
	c0-4.995,2.05-9.045,6.058-9.045h231.085C201.284,282.573,203.334,286.623,203.334,291.618L203.334,291.618z"/>
<path class="st0" d="M362.935,388.827c0,3.42-1.652,6.194-3.688,6.194H241.822c-2.037,0-3.688-2.774-3.688-6.194l0,0
	c0-3.422,1.651-6.193,3.688-6.193h117.424C361.282,382.634,362.935,385.405,362.935,388.827L362.935,388.827z"/>
<path class="st3" d="M202.134,273.749c0,2.496-0.85,4.522-4.857,4.522H-33.809c-4.008,0-4.857-2.026-4.857-4.522l0,0
	c0-2.498,0.85-4.522,4.857-4.522h231.085C201.284,269.227,202.134,271.251,202.134,273.749L202.134,273.749z"/>
<path class="st6" d="M202.134,309.486c0,2.496-0.85,4.522-4.857,4.522H-33.809c-4.008,0-4.857-2.026-4.857-4.522l0,0
	c0-2.498,0.85-4.521,4.857-4.521h231.085C201.284,304.965,202.134,306.988,202.134,309.486L202.134,309.486z"/>
<path class="st1" d="M642.067,291.618c0,4.995-2.05,9.044-6.058,9.044H404.924c-4.008,0-6.057-4.049-6.057-9.044l0,0
	c0-4.995,2.049-9.045,6.057-9.045H636.01C640.018,282.573,642.067,286.623,642.067,291.618L642.067,291.618z"/>
<path class="st3" d="M640.867,273.749c0,2.496-0.85,4.522-4.857,4.522H404.924c-4.008,0-4.857-2.026-4.857-4.522l0,0
	c0-2.498,0.85-4.522,4.857-4.522H636.01C640.018,269.227,640.867,271.251,640.867,273.749L640.867,273.749z"/>
<path class="st6" d="M640.867,309.486c0,2.496-0.85,4.522-4.857,4.522H404.924c-4.008,0-4.857-2.026-4.857-4.522l0,0
	c0-2.498,0.85-4.521,4.857-4.521H636.01C640.018,304.965,640.867,306.988,640.867,309.486L640.867,309.486z"/>
<g>
	<path class="st5" d="M230.921,281.197h-10.34v-8.421h18.537h0.143c0,0-5.141,3.425-8.189,8.421H230.921z"/>
	<path class="st5" d="M242.215,272.104v9.443c0,0-5.482,2.381-6.191,9.15c0,0-1.146,8.198-0.861,18.82h-8.199
		c0,0-0.284-14.19,2.187-22.269C229.159,287.26,231.545,277.875,242.215,272.104z"/>
	<rect x="243.02" y="287.531" class="st5" width="9.904" height="6.655"/>
	<polygon class="st5" points="258.244,272.646 258.244,309.375 274.501,309.375 274.501,302.1 267.409,302.1 267.409,293.548 
		274.519,293.548 274.519,287.531 267.409,287.531 267.409,279.299 274.519,279.299 274.519,272.646 	"/>
	<polygon class="st5" points="296.126,272.646 296.126,309.375 312.392,309.375 312.392,302.1 305.29,302.1 305.29,293.548 
		312.401,293.548 312.401,287.531 305.29,287.531 305.29,279.299 312.401,279.299 312.401,272.646 	"/>
	<polygon class="st5" points="339.963,272.646 339.963,309.375 356.218,309.375 356.218,302.1 349.117,302.1 349.117,293.548 
		356.246,293.548 356.246,287.531 349.117,287.531 349.117,279.299 356.246,279.299 356.246,272.646 	"/>
	<polygon class="st5" points="278.07,272.646 278.07,309.375 293.815,309.375 293.815,302.1 286.971,302.1 286.971,272.646 	"/>
	<polygon class="st5" points="314.654,272.646 318.715,309.375 331.953,309.375 337.528,272.646 330.551,272.646 326.546,299.002 
		323.317,272.646 	"/>
	<path class="st5" d="M382.502,309.375v-28.296c0,0,1.229-9.846-7.633-9.14c0,0-4.194,1.188-6.664,4.053v-3.347h-8.56v36.729h8.634
		v-23.67c0,0-0.083-4.499,2.388-4.861c2.479-0.357,3.059,1.178,2.962,3.318v25.213H382.502z"/>
</g>
</svg>
