<svg xmlns="http://www.w3.org/2000/svg" xml:space="preserve" width="1000px" height="173px" x="0px" y="0px" viewBox="0 0 1000 173"><linearGradient id="a" x1="233.1904" x2="233.1904" y1="451.7451" y2="620.3224" gradientTransform="matrix(-1 .0069 .0069 1 255.178 -451.624)" gradientUnits="userSpaceOnUse"><stop offset="0" style="stop-color:#014da1"/><stop offset="1" style="stop-color:#00adee"/></linearGradient><path fill="url(#a)" d="M1.045 88.865a2.354 2.354 0 0 1 2.351-2.427l44.615-.277c1.328-.027 2.392 1.032 2.392 2.382.036.291-.032.614-.164.91l-21.955 54.604c-.35.836-1.19 1.473-2.187 1.473-.654 0-1.246-.291-1.683-.673 0-.036-.067-.055-.067-.101C10.521 130.098 1.777 110.557 1 88.97c0-.041.045-.077.045-.077v-.028z"/><linearGradient id="b" x1="172.0327" x2="172.0327" y1="451.749" y2="620.3337" gradientTransform="matrix(-1 .0069 .0069 1 255.178 -451.624)" gradientUnits="userSpaceOnUse"><stop offset="0" style="stop-color:#014da1"/><stop offset="1" style="stop-color:#00adee"/></linearGradient><path fill="url(#b)" d="m48.283 160.095 26.465-65.806c.031-.027.031-.063.064-.101 1.842-4.801 6.561-8.266 12.047-8.287 5.162-.037 9.617 2.932 11.771 7.27l27.834 66.406v.027c.109.272.178.582.178.909 0 .873-.459 1.655-1.174 2.063-.035.046-.059.046-.1.064-11.385 5.756-24.314 9.002-37.932 9.147-13.652.091-26.543-3.01-38.035-8.62h-.027a2.41 2.41 0 0 1-1.291-2.109 2.4 2.4 0 0 1 .149-.9c.001.001.051-.026.051-.063z"/><linearGradient id="c" x1="110.9092" x2="110.9092" y1="451.7363" y2="620.333" gradientTransform="matrix(-1 .0069 .0069 1 255.178 -451.624)" gradientUnits="userSpaceOnUse"><stop offset="0" style="stop-color:#014da1"/><stop offset="1" style="stop-color:#00adee"/></linearGradient><path fill="url(#c)" d="M123.469 88.97v-.077c-.127-.286-.164-.573-.195-.859 0-1.327 1.068-2.428 2.387-2.428l44.629-.318a2.375 2.375 0 0 1 2.377 2.359c.033.027.033.06.033.06-.441 21.623-8.902 41.328-22.523 56.203-.037 0-.037.037-.037.037-.459.418-1.059.746-1.736.746a2.385 2.385 0 0 1-2.201-1.474L123.469 88.97z"/><linearGradient id="d" x1="125.1929" x2="125.1929" y1="451.7461" y2="620.1519" gradientTransform="matrix(-1 .0069 .0069 1 255.178 -451.624)" gradientUnits="userSpaceOnUse"><stop offset="0" style="stop-color:#014da1"/><stop offset="1" style="stop-color:#00adee"/></linearGradient><path fill="url(#d)" d="m165.691 60.772-52.252.363h-.209a2.349 2.349 0 0 1-1.996-1.459l-4.197-10.043c-5.75-14.845-8.502-29.025-8.461-42.028L98.535 3.6c0-1.323 1.041-2.392 2.365-2.392h.318c.031.022.096.022.096.022 31.074 5.273 56.48 27.225 66.615 56.386l.031.032c.1.218.123.481.123.745a2.37 2.37 0 0 1-2.392 2.379z"/><linearGradient id="e" x1="218.8989" x2="218.8989" y1="451.7305" y2="620.3007" gradientTransform="matrix(-1 .0069 .0069 1 255.178 -451.624)" gradientUnits="userSpaceOnUse"><stop offset="0" style="stop-color:#014da1"/><stop offset="1" style="stop-color:#00adee"/></linearGradient><path fill="url(#e)" d="m66.15 49.929-4.037 10.103c-.313.718-.963 1.296-1.732 1.454h-.217c-.109.041-.205.041-.205.041l-52.303.382a2.442 2.442 0 0 1-2.46-2.392c0-.255.068-.515.137-.731v-.041c9.738-29.248 34.862-51.631 65.864-57.31h.068c.127-.04.246-.04.314-.04 1.313 0 2.422 1.041 2.422 2.368l.037 4.028h-.037c.229 13.018-2.312 27.226-7.851 42.138z"/><g fill="#0066B2"><path d="M779.057 96.226c-33.553 0-51.338 10.785-51.338 27.479 0 17.04 17.24 27.606 51.338 27.606 34.063 0 51.34-10.566 51.34-27.606-.001-16.694-17.786-27.479-51.34-27.479zm0 41.455c-24.369 0-36.734-5.318-36.734-13.939 0-8.42 12.711-13.876 36.734-13.876 23.988 0 36.746 5.456 36.746 13.876 0 8.62-12.358 13.939-36.746 13.939zM720.334 39.149h35.1l-32.771 26.852c-.49.428-.809 1.041-.809 1.691 0 1.25 1.037 2.255 2.281 2.255h15.986s.055-.022.1-.063l35.127-28.738c.709-.387 1.482-.609 2.254-.609.818 0 1.529.19 2.211.582l35.152 28.766a.65.65 0 0 0 .064.063h16.014c1.254 0 2.299-1.005 2.299-2.255 0-.688-.344-1.301-.818-1.691L799.79 39.15h35.1a.196.196 0 0 0 .199-.191V25.813c0-.1-.072-.195-.199-.195H720.334c-.162 0-.236.096-.236.195v13.145c0 .086.074.191.236.191zM845.863 76.366H710.605s-.182.073-.182.201v13.144c0 .101.09.187.09.187h123.793c7.002-.023 12.793-4.684 13.785-10.676.072-.164.09-.363.09-.555a2.313 2.313 0 0 0-2.318-2.301zM948.533 93.325v13.686c0 .072.037.127.055.163.082.036.145.073.145.073h33.381v10.475c0 .109.137.209.229.209h14.893c.074 0 .191-.1.191-.209V22.94c0-.104-.117-.195-.191-.195h-14.893c-.092 0-.229.091-.229.195v70.158h-33.361a.23.23 0 0 0-.22.227z"/><path d="M908.979 103.373c0 .118.109.218.199.218h14.914s.199-.1.199-.218V82.636h40.938s.1 0 .127-.067c.055-.027.055-.091.055-.132V68.72c0-.1-.055-.191-.055-.191h-14.658V41.146c0-.51.455-6.229-5.064-11.172-4.355-3.932-9.502-4.342-11.494-4.342h-55.73s-.182.109-.182.209v13.727c0 .027 0 .091.027.132.063.036.09.06.09.06h55.658c.201 0 .756.035 1.201.422.254.255.381.614.381 1.073v27.274h-63.141s-.201.092-.201.191v13.717c0 .041.037.104.072.132.02.067.092.067.092.067h36.572v20.737zM286.715 89.747c32.764 0 53.113-13.439 53.113-35.035 0-21.215-20.818-34.877-53.113-34.877-32.252 0-53.121 13.662-53.121 34.877 0 21.596 20.345 35.035 53.121 35.035zm0-54.857c22.105 0 38.195 8.324 38.195 19.822 0 11.758-15.693 19.955-38.195 19.955-22.473 0-38.168-8.197-38.168-19.955 0-11.498 16.045-19.822 38.168-19.822zM519.834 53.611h-20.887V22.94c0-.104-.105-.195-.105-.195h-14.977c-.141 0-.23.091-.23.195v88.271c0 .127.09.218.23.218h14.867s.215-.091.215-.218V67.72h20.887c.127 0 .219-.096.219-.188v-13.73c0-.09-.092-.191-.219-.191zM459.188 58.422c0-20.05-14.361-36.286-40.445-36.286-26.061 0-40.459 16.236-40.459 36.286 0 20.087 14.398 36.321 40.459 36.321 26.083 0 40.445-16.234 40.445-36.321zm-65.698 0c0-12.526 8.971-22.665 25.252-22.665 16.289 0 25.301 10.139 25.301 22.665 0 12.562-9.012 22.7-25.301 22.7-16.281 0-25.252-10.139-25.252-22.7zM684.945 68.983H664.648V22.94c0-.104-.117-.195-.217-.195h-14.867c-.129 0-.229.091-.229.195v124.043c0 .1.1.199.229.199h14.867c.1 0 .217-.1.217-.199V83.087h20.205s.191-.101.191-.188V69.175c.001-.133-.099-.192-.099-.192zM351.994 99.172H221.033c-.211 0-.184.164-.184.164v13.558c0 .137.055.227.184.227h30.297v31.099c0 .183.15.183.15.183h14.922c.137 0 .232-.064.232-.183v-31.1h43.086v31.099c0 .118.109.183.209.183h14.887s.223.018.223-.183V113.12h16.822c5.9-.072 11.27-5.037 12.197-11.365v-.255c.001-1.265-.927-2.328-2.064-2.328zM504.299 130.688h-91.473c-.23 0-.75-.036-1.195-.428a1.275 1.275 0 0 1-.395-1.027v-22.769c0-.128-.092-.218-.182-.218h-14.9c-.082 0-.182.09-.182.218v19.858c0 10.212 8.547 18.496 19.01 18.496h78.336c6.547 0 12.271-5.192 13.234-11.494.037-.1.037-.191.037-.354a2.273 2.273 0 0 0-2.29-2.282zM633.023 110.692h-64.215c-.199 0-.781-.027-1.201-.418-.244-.254-.381-.609-.381-1.027V82.209h57.949c.137 0 .229-.095.229-.19V68.683c0-.09-.092-.186-.229-.186h-57.949V41.118l61.633-.014s.199-.101.199-.188V27.46c0-.137-.109-.191-.109-.191h-77.617V106.301c0 10.248 8.564 18.532 18.977 18.532h51.713c6.547 0 12.256-5.201 13.266-11.494.027-.091.027-.191.027-.354a2.302 2.302 0 0 0-2.292-2.293zM996.707 130.688h-91.492c-.201 0-.746-.036-1.164-.428-.291-.264-.42-.609-.42-1.027v-22.769c0-.128-.09-.218-.199-.218h-14.84s-.209.09-.209.218v19.858c0 10.212 8.557 18.496 18.986 18.496h78.336c6.547 0 12.268-5.192 13.258-11.494.037-.1.037-.191.037-.354a2.292 2.292 0 0 0-2.293-2.282z"/></g></svg>