<?xml version="1.0" encoding="utf-8"?>
<!-- Generator: Adobe Illustrator 16.0.0, SVG Export Plug-In . SVG Version: 6.00 Build 0)  -->
<!DOCTYPE svg PUBLIC "-//W3C//DTD SVG 1.1//EN" "http://www.w3.org/Graphics/SVG/1.1/DTD/svg11.dtd">
<svg version="1.1" id="레이어_1" xmlns="http://www.w3.org/2000/svg" xmlns:xlink="http://www.w3.org/1999/xlink" x="0px"
	 y="0px" width="1919.76px" height="2706.662px" viewBox="0 0 1919.76 2706.662"
	 style="enable-background:new 0 0 1919.76 2706.662;" xml:space="preserve">
<style type="text/css">
<![CDATA[
	.st0{fill:none;stroke:#D71718;stroke-width:3;stroke-linecap:round;}
]]>
</style>
<path class="st0" d="M1436.999,0c0,0-69.796,40.835-44.596,114.738c39.529,115.924-10.251,180.315-55.052,128.84
	c-44.801-51.474,92.951-169.083,224.873,73.287c131.922,242.371,201.686,581.264,117.057,614.868v120.827h22.063V893.839
	l-100.885-21.448v42.898l9.334-8.044v-46.83l-35.677,12.87v10.188l18.046-7.507l-8.09-143.171c0,0-32.357-15.014-8.089-9.115
	s42.937,4.29,50.404-10.188c7.467-14.478,5.601-11.797,20.534-10.725c14.935,1.073,42.314-3.217,28.625-8.043
	c-13.69-4.826-18.669,4.291,4.978,10.725s40.448-0.536,31.113-12.87c-9.334-12.333-30.491-19.303-55.381-8.579
	c-24.892,10.724-23.024-13.942-44.182,3.217c-21.157,17.159-24.891,5.362-21.157,1.608c3.734-3.753,21.779,16.087-15.557,6.971
	c-37.336-9.116-34.848,16.623-21.779,36.999c13.067,20.377,31.494-15.183-16.18-2.68c-14.312,3.753-15.557,140.488-15.557,140.488
	l-9.956-3.277l-0.622-4.766l57.249,15.014l2.488,177.489h33.604l2.403-131.91l-73.965,28.42v103.49h-47.914V861.488l-47.916,17.696
	v-6.435l48.537-17.695l16.18,4.826l-3.111-115.823c0,0-5.602-6.434-26.758-10.724c-21.157-4.29-23.024-34.854-4.355-30.565
	c18.668,4.29,17.424,6.971,29.869,1.609c12.444-5.362,17.422,4.826,26.758-7.506c9.333-12.334,22.4,0.535,33.602,1.608
	s29.73,10.992,9.749,16.98c-19.98,5.989-41.484-0.357-34.018-5.719c7.468-5.362,13.275,11.796-12.859,15.013
	c-26.136,3.218-36.712,3.704-60.568,11.083c-16.18,5.004-15.35,15.014-16.18,25.38c-0.829,10.368-14.519,113.679-14.519,113.679
	l-51.441,17.159c0,0,5.809-88.297,9.127-91.157c3.318-2.859,13.69-3.574,15.764-6.077c2.074-2.502,9.958-3.218,26.551-4.647
	c16.593-1.43,44.39-2.502,42.313-12.154c-2.074-9.652-10.785-4.29-7.052-0.715c3.733,3.576,31.114,8.222,28.21-9.652
	c-2.904-17.874-15.35-0.357-20.328-8.222c-4.978-7.864-15.35-1.072-21.157,3.217c-5.808,4.29-19.083,11.083-22.401,5.72
	c-3.319-5.362-11.2-1.072-13.274,2.86c-2.075,3.932-5.809,0-10.787-3.575c-4.978-3.575-39.825,10.367-17.009,24.667
	c22.817,14.299,28.21-0.357,29.041,11.439c0.829,11.797,1.658,65.775,1.658,65.775l-73.843,28.956v156.576h12.445l-0.829-129.05
	l-68.865,22.164v109.389c0,0-19.86,37.393-98.733,51.477c-184.192,32.888-413.675-273.709-688.372-229.402
	c-314.973,50.802-176.837,256.699-337.374,165.011c-82.092-46.885,110.948-99.2,177.338-11.26
	c66.389,87.939,133.9,23.2,192.393,44.648c58.493,21.449,184.685,84.037,121.965,211.271
	c-30.093,61.046-48.951,53.263-72.183,56.839c-23.23,3.575-97.903-19.305-113.667,19.304
	c-15.764,38.607,24.062,47.188,38.996,29.313c14.935-17.872-24.892-51.476-68.036-7.147c-43.144,44.325-63.886,32.172-87.947,30.027
	c-24.061-2.145-18.253,7.863-34.018,21.45c-15.765,13.582-38.167,15.728-40.655-2.863c-2.488-18.587-15.142-79.896-25.721-60.591
	c-10.578,19.304-14.935,6.434-12.444-0.537c2.489-6.97,16.801,10.188-2.49,14.478c-19.29,4.291-21.772,0.537-18.664-10.724
	s14.931,19.841,6.22,18.769c-8.712-1.073-20.535-12.334-19.913-6.436c0.623,5.897,6.845,14.478,13.69,23.057
	c6.845,8.579,36.552,45.579,30.722,47.725c-5.831,2.144-14.543,9.114-21.388,0c-6.846-9.116-38.581-13.406-59.737-35.391
	c-21.158-21.984-44.805-84.723,31.112-112.605c75.918-27.884,115.535,52.906,105.993,80.433
	c-9.539,27.526-9.539,38.249-8.295,42.183c1.244,3.932,7.881,10.724-23.233,22.521c-31.112,11.797-40.239,18.948-32.771,20.735
	c7.468,1.786,59.321-18.59,61.811-22.879c2.489-4.291-7.467-8.223-19.912,6.076c-12.445,14.3-13.229,15.372-33.579,22.88
	c-20.351,7.507,1.221,9.65,32.334-2.858c31.114-12.514,26.967-13.229,26.552-15.732c-0.416-2.502-12.861-6.791-22.817,8.58
	c-9.956,15.372,4.42,18.897-15.35,25.383c-7.467,2.448-10.371-5.722-10.371-5.722l42.314-14.301c0,0,1.659,6.436-3.318,9.654
	c-4.979,3.217,12.03,19.839-6.686,22.588c-10.351,1.521-6.797-13.473-55.542-1.497c-88.333,21.703,0.314,145.966-41.613,169.501
	c-56.371,31.635-94.247-49.22-30.983-51.712c108.896-4.289,201.5,278.646,397.175,273.158c116.23-3.261,59.091-68.65,33.423-71.372
	c-25.667-2.721-55.356,13.596-56.484,44.084c-1.544,41.706,25.171,224.389,536.74,148.593
	c136.577-20.237,134.146-135.419-27.043-92.305c0,0,13.301-145.083-80.479-100.046c-93.777,45.038-58.621,234.992,10.54,259.296
	c143.649,50.48,787.517,95.61,711.371,309.955c-74.673,210.197-157.831,114.748-177.969,87.939
	c-20.138-26.81-26.01-50.178,2.489-56.839c28.499-6.663,16.179-25.74,11.201-35.39c-4.979-9.652-19.914-23.594,4.978-48.261
	c24.891-24.664,0-45.042-31.113-25.738c-31.114,19.304-136.899,79.361-129.433,156.576c7.468,77.214,73.429,36.462,97.074,16.085
	c23.646-20.375,77.161-20.375,94.584-18.23c17.425,2.146,60.983,3.216,62.228-15.014c1.245-18.231-56.004-38.609-51.025-30.028
	c4.978,8.579,38.581,43.32,67.205,10.936c28.624-32.384,7.052-19.875-11.201-32.028c-18.252-12.152-64.715-29.313-41.484-12.152
	c23.232,17.159,64.716,28.598,77.991,10.725c13.274-17.877,0.83-28.6-15.764-38.609c-16.595-10.009-65.546-45.045-58.909-32.889
	c6.639,12.154,72.185,52.192,81.312,29.313c9.125-22.88-4.979-33.603-38.168-52.19c-33.187-18.589-87.947-34.317-100.392-25.024
	c-12.446,9.293-2.587,38.688,17.424-10.011c20.009-48.697,38.165-86.509,5.807-103.668c-32.357-17.158-21.571,25.739-43.144,60.058
	c-21.571,34.316-71.354,95.804-151.004,158.72c-79.651,62.914-72.184,178.382,1.244,235.223
	c73.428,56.837-6.223,83.648-22.402,45.041c-16.178-38.608,129.433-68.635,190.415-32.174
	c60.983,36.464,66.204,63.122,66.204,63.122"/>
</svg>
