<svg xmlns="http://www.w3.org/2000/svg" width="830.56635pt" height="112.5pt" viewBox="0 0 830.56631 112.5"><path fill="#d71921" d="M-1383.603 752.747h9.324c.609 0 1.093-.455 1.093-1.024v-16.551c0-.574-.485-1.044-1.093-1.044h-13.098c-15.142 0-23.18 4.561-27.76 14.256l-28.483 65.666c-1.732 3.918-4.225 5.778-9.132 5.778v-84.656c0-.574-.494-1.044-1.108-1.044h-20.924c-.608 0-1.113.47-1.113 1.044v101.45c0 1.008.88 1.83 1.96 1.83h23.466c15.141 0 22.067-4.566 26.652-14.232l28.111-64.85c2.256-4.6 5.496-6.623 12.105-6.623M-1663.787 820.277h-35.398v-24.461h35.398c9.537 0 15.977 5.48 15.977 12.228 0 6.762-6.44 12.233-15.977 12.233m24.386-33.978c8.39-3.28 15.36-10.68 15.36-22.893 0-18.223-16.621-29.279-36.645-29.279h-61.877c-.603 0-1.098.47-1.098 1.044v16.556c0 .564.495 1.02 1.098 1.02h57.588c9.305 0 15.582 5.351 15.582 11.93 0 6.594-6.277 11.936-15.582 11.936h-34.21v-12.297c0-.569-.495-1.034-1.098-1.034h-22.28c-.603 0-1.098.465-1.098 1.034v73.096c0 .573.495 1.038 1.098 1.038h60.987c22.794 0 39.113-10.006 39.113-30.406 0-10.017-6.283-18.312-16.938-21.745M-1361.947 837.266l-35.873-43.203c-.11-.133-.257-.099-.321.035l-9.666 22.235c-.045.143-.045.296.054.41l15.69 19.806c1.099 1.365 2.36 1.905 4.245 1.905h25.277c.732 0 1.039-.668.593-1.188M-1583.16 763.28h-20.958c-.608 0-1.098.47-1.098 1.04v73.09c0 .578.49 1.043 1.098 1.043h20.959c.608 0 1.103-.465 1.103-1.043v-73.09c0-.57-.495-1.04-1.103-1.04" style="stroke-width:4.94658" transform="translate(1723.66 -728.217)"/><path fill="#d71921" d="M-1496.971 734.127h-20.944c-.603 0-1.093.47-1.093 1.044v84.656c-4.912 0-7.39-1.86-9.117-5.778l-28.497-65.666c-4.58-9.695-12.614-14.256-27.76-14.256h-19.737c-.608 0-1.098.47-1.098 1.044v16.556c0 .564.49 1.02 1.098 1.02h15.963c6.608 0 9.843 2.022 12.11 6.628l28.11 64.844c4.586 9.666 11.501 14.232 26.648 14.232h23.476c1.073 0 1.934-.821 1.934-1.83V735.17c0-.574-.49-1.044-1.093-1.044" style="stroke-width:4.94658" transform="translate(1723.66 -728.217)"/><path fill="#655c4f" d="m-1158.082 790.375.42.208 7.217-9.507-.742-.5c-13.484-9.007-23.951-21.725-23.946-37.327v-10.392h-17.511v10.392c.015 16.28-12.752 31.44-24.209 38.692l-.484.292 7.227 9.518.445-.213c8.993-4.457 20.963-16.507 25.806-25.386 4.62 8.325 16.136 19.534 25.777 24.223m-177.691 11.946h48.04v34.889h10.537c4.492-.015 7.074-3.067 7.074-7.47v-27.419h44.657V789.99h-110.308zm35.422-49.302h43.396v12.035c0 1.138-.974 2.068-2.181 2.068h-39.048c-1.202 0-2.167-.935-2.167-2.068zm-1.998 26.029h47.452c9.76-.01 13.579-4.927 13.584-10.863v-37.688h-15.508v10.695h-43.658v-10.695h-15.483v37.688c.019 5.936 3.838 10.853 13.613 10.863m177.888-48.526h-16.165v73.823h9.621c4.145-.011 6.544-2.805 6.544-6.48V765.37h14.722v-13.642h-14.722zm198.25 98.085c-8.662 0-15.563-5.896-15.568-13.063 0-7.173 6.906-13.06 15.567-13.07 8.632.011 15.537 5.897 15.567 13.07-.03 7.167-6.935 13.063-15.567 13.063m0-38.246c-17.397.024-31.593 11.204-31.613 25.183.02 13.974 14.216 25.153 31.613 25.173 17.383-.02 31.545-11.2 31.584-25.173-.039-13.98-14.201-25.159-31.584-25.183m18.407-59.864v20.627h-7.208v-20.627h-14.7v55.219h8.354c4.012 0 6.346-2.716 6.346-6.258v-15.265h7.208v21.523h8.374c3.992 0 6.337-2.716 6.337-6.258v-48.96zm-140.879 9.69c9.067.01 16.27 5.857 16.294 12.93-.026 7.074-7.227 12.946-16.294 12.946-9.077 0-16.299-5.872-16.319-12.945.02-7.074 7.242-12.92 16.319-12.93m0 37.84c17.684-.02 32.148-11.06 32.173-24.91-.025-13.84-14.489-24.886-32.173-24.901-17.684.015-32.162 11.06-32.182 24.9.019 13.851 14.498 24.892 32.182 24.912m-52.31 19.934h104.605v-12.168h-104.605zm33.661 26.4v-17.95h-17.04v21.294c.03 5.931 3.838 10.853 13.637 10.873h63.104V826.43h-57.51c-1.211 0-2.19-.915-2.19-2.068m105.604-44.86c-6.955 0-11.59-5.209-11.605-11.763.015-6.55 4.65-11.753 11.605-11.763 6.985.01 11.62 5.214 11.65 11.763-.03 6.554-4.665 11.763-11.65 11.763m24.901-11.526c0-6.905-3.151-13.093-8.568-17.184h9.696V739.96h-17.788v-9.463h-16.571v9.463h-17.917v10.833h9.943c-5.426 4.09-8.587 10.279-8.587 17.184.02 12.327 10.937 22.25 24.89 22.285 13.742-.035 24.902-9.958 24.902-22.285m-240.21 56.406v-23.249h-17.244v26.573c.02 5.931 3.848 10.853 13.613 10.873h58.705V826.43h-52.898c-1.202 0-2.177-.915-2.177-2.048" style="stroke-width:4.94658" transform="translate(1723.66 -728.217)"/></svg>